<?xml version="1.0" encoding="iso-8859-1"?>
<svg xmlns="http://www.w3.org/2000/svg" xmlns:xlink="http://www.w3.org/1999/xlink"
     x="0px" y="0px" width="200px" height="200px" viewBox="0 0 200 200"
     xml:space="preserve">
<g id="pen" transform="translate(-15 -15)">
  <polygon points="130,50 50,130 50,150 70,150 150,70"/>
  <polygon points="60,130 60,140 70,140" style="fill:white"/>
  <line x1="110" y1="60" x2="140" y2="90" style="stroke:white;stroke-width:10"/>
</g>
<g id="cross" transform="translate(45 35)">
  <polygon points="120,50 95,75 70,50 50,70 75,95 50,120 70,140 95,115 120,140 140,120 115,95 140,70" style="stroke:white;stroke-width:10"/>
</g>
<!--<line x1="0" y1="200" x2="200" y2="200" style="stroke:blue;stroke-width:2"/>
<line x1="200" y1="200" x2="200" y2="0" style="stroke:blue;stroke-width:2"/>-->
</svg>