<?xml version="1.0" encoding="iso-8859-1"?>
<svg xmlns="http://www.w3.org/2000/svg" xmlns:xlink="http://www.w3.org/1999/xlink"
     x="0px" y="0px" width="200px" height="200px" viewBox="0 0 200 200"
     xml:space="preserve">
<g transform="translate(15 0)">
  <polygon points="50,30 20,60 20,170 140,170 140,30"/>
  <polygon points="50,30 20,60 20,170 140,170 140,30" transform="translate(20 25.75) scale(0.75)" style="fill:white;"/>
  <polygon points="55,30 55,70 20,70 20,85 70,85 70,30"/>
  <line x1="80" y1="70" x2="120" y2="70" style="stroke:black;stroke-width:10;"/>
  <line x1="40" y1="100" x2="120" y2="100" style="stroke:black;stroke-width:10;"/>
  <line x1="40" y1="130" x2="120" y2="130" style="stroke:black;stroke-width:10;"/>
  <polygon points="130,40 95,75 60,40 40,60 75,95 40,130 60,150 95,115 130,150 150,130 115,95 150,60" transform="translate(22.5 52.5)" style="stroke:white;stroke-width:10"/>
</g>
<!--<line x1="0" y1="200" x2="200" y2="200" style="stroke:blue;stroke-width:2"/>
<line x1="200" y1="200" x2="200" y2="0" style="stroke:blue;stroke-width:2"/>-->
</svg>