<?xml version="1.0" encoding="iso-8859-1"?>
<svg xmlns="http://www.w3.org/2000/svg" xmlns:xlink="http://www.w3.org/1999/xlink"
     x="0px" y="0px" width="200px" height="200px" viewBox="0 0 200 200"
     xml:space="preserve">
<g id="page" transform="translate(15 0)">
  <polygon points="60,30 20,70 20,170 140,170 140,30" style="fill:white;stroke:black;stroke-width:15"/>
  <polygon points="60,30 60,70 20,70 20,85 75,85 75,30"/>
</g>
<g id="cross" transform="translate(42.5 45)">
  <polygon points="120,50 95,75 70,50 50,70 75,95 50,120 70,140 95,115 120,140 140,120 115,95 140,70" style="stroke:white;stroke-width:10"/>
</g>
<!--<line x1="0" y1="200" x2="200" y2="200" style="stroke:blue;stroke-width:2"/>
<line x1="200" y1="200" x2="200" y2="0" style="stroke:blue;stroke-width:2"/>-->
</svg>